<svg width="463" height="70" viewBox="0 0 463 70" fill="none" xmlns="http://www.w3.org/2000/svg">
<path d="M2.784 68.256C0.928 68.256 0 67.904 0 67.2C0 66.752 0.256 66.4 0.768 66.144C1.28 65.888 2.08 65.664 3.168 65.472C5.664 65.024 7.456 64.288 8.544 63.264C9.632 62.176 10.176 60.48 10.176 58.176V17.664C10.176 14.592 9.76 12.32 8.928 10.848C8.16 9.376 6.624 8.448 4.32 8.064C2.208 7.68 1.152 7.04 1.152 6.144C1.152 5.44 2.08 5.088 3.936 5.088C6.688 5.088 8.48 5.12 9.312 5.184H13.344C14.304 5.184 15.424 5.152 16.704 5.088C17.984 5.024 18.944 4.96 19.584 4.896C21.248 4.704 22.72 4.608 24 4.608C31.36 4.608 37.248 6.144 41.664 9.216C46.08 12.224 48.288 16.384 48.288 21.696C48.288 25.728 47.488 29.408 45.888 32.736C44.352 36 41.952 38.592 38.688 40.512C35.488 42.432 31.52 43.392 26.784 43.392C25.504 43.392 24.448 43.2 23.616 42.816C22.848 42.432 22.464 42.016 22.464 41.568C22.464 41.312 22.624 41.024 22.944 40.704C23.328 40.384 23.68 40.224 24 40.224C24.192 40.224 24.672 40.256 25.44 40.32C26.272 40.384 27.264 40.416 28.416 40.416C32.192 40.416 35.072 38.848 37.056 35.712C39.04 32.576 40.032 28.128 40.032 22.368C40.032 17.44 38.56 13.696 35.616 11.136C32.736 8.576 28.864 7.296 24 7.296C19.904 7.296 17.856 8.64 17.856 11.328V57.12C17.856 59.552 18.336 61.44 19.296 62.784C20.32 64.128 21.984 65.024 24.288 65.472C25.376 65.664 26.176 65.888 26.688 66.144C27.2 66.4 27.456 66.752 27.456 67.2C27.456 67.904 26.528 68.256 24.672 68.256C22.624 68.256 20.768 68.128 19.104 67.872C17.952 67.68 16.672 67.584 15.264 67.584C14.112 67.584 12.928 67.648 11.712 67.776C10.56 67.84 9.728 67.872 9.216 67.872C6.656 68.128 4.512 68.256 2.784 68.256Z" fill="black"/>
<path d="M55.1768 68.064C53.8968 68.064 53.2567 67.776 53.2567 67.2C53.2567 66.752 53.4167 66.432 53.7367 66.24C54.1207 65.984 54.6967 65.728 55.4647 65.472C56.7447 65.088 57.7368 64.608 58.4408 64.032C59.2088 63.392 59.5928 62.464 59.5928 61.248V34.176C57.1608 34.176 55.2728 34.112 53.9287 33.984C53.7367 33.92 53.5127 33.696 53.2567 33.312C53.0647 32.864 52.9688 32.48 52.9688 32.16C52.9688 31.904 53.0647 31.744 53.2567 31.68C54.7927 31.296 56.1367 30.848 57.2887 30.336C58.4408 29.76 59.2088 29.376 59.5928 29.184C59.6567 22.08 60.9687 16.352 63.5287 12C66.0887 7.648 69.1288 4.576 72.6488 2.784C76.1687 0.927999 79.5608 0 82.8248 0C84.8088 0 86.5048 0.256001 87.9128 0.768002C88.0407 0.768002 88.2328 0.832001 88.4888 0.959999C88.8088 1.024 89.0968 0.991999 89.3528 0.864C90.0568 0.544001 90.5048 0.352001 90.6968 0.288002C90.8248 0.223999 90.9847 0.191998 91.1768 0.191998C91.5608 0.191998 91.7528 0.383999 91.7528 0.768002C91.7528 1.152 91.6568 2.368 91.4648 4.416C91.2728 6.464 91.1768 9.6 91.1768 13.824V61.248C91.1768 62.464 91.5287 63.392 92.2327 64.032C93.0007 64.608 93.9928 65.088 95.2087 65.472C95.9767 65.728 96.5208 65.984 96.8408 66.24C97.2247 66.432 97.4167 66.752 97.4167 67.2C97.4167 67.776 96.7767 68.064 95.4967 68.064C93.8327 68.064 92.4567 67.968 91.3688 67.776C89.9608 67.648 88.7448 67.584 87.7207 67.584C86.6967 67.584 85.4808 67.648 84.0728 67.776C83.0488 67.968 81.6727 68.064 79.9447 68.064C78.6647 68.064 78.0247 67.776 78.0247 67.2C78.0247 66.752 78.1848 66.432 78.5048 66.24C78.8887 65.984 79.4648 65.728 80.2327 65.472C81.5127 65.088 82.5368 64.608 83.3047 64.032C84.0728 63.392 84.4567 62.464 84.4567 61.248V34.944C84.4567 34.624 84.3288 34.4 84.0728 34.272C83.8808 34.08 83.6568 33.984 83.4007 33.984H70.1527C68.4248 33.984 67.3367 34.144 66.8887 34.464C66.5047 34.72 66.3128 35.2 66.3128 35.904V61.248C66.3128 62.464 66.6647 63.392 67.3688 64.032C68.1367 64.608 69.1608 65.088 70.4408 65.472C71.2087 65.728 71.7527 65.984 72.0727 66.24C72.4567 66.432 72.6488 66.752 72.6488 67.2C72.6488 67.776 72.0088 68.064 70.7288 68.064C69.0648 68.064 67.6888 67.968 66.6008 67.776C65.1928 67.648 63.9768 67.584 62.9528 67.584C61.9287 67.584 60.7127 67.648 59.3047 67.776C58.2807 67.968 56.9048 68.064 55.1768 68.064ZM83.5928 29.376C84.1687 29.376 84.4567 29.056 84.4567 28.416V13.44C84.4567 10.816 84.1048 8.576 83.4007 6.72C82.6967 4.8 81.0328 3.84 78.4088 3.84C76.2968 3.84 74.3128 4.512 72.4567 5.856C70.6647 7.136 69.1927 9.152 68.0407 11.904C66.8887 14.656 66.3128 18.08 66.3128 22.176V27.456C66.3128 28.736 67.1128 29.376 68.7128 29.376H83.5928Z" fill="black"/>
<path d="M110.459 69.12C109.371 69.12 108.219 68.672 107.003 67.776C105.787 66.944 104.763 65.888 103.931 64.608C103.163 63.264 102.779 62.016 102.779 60.864C102.779 58.88 103.291 57.312 104.315 56.16C105.403 55.008 107.163 53.92 109.595 52.896L119.387 48.864C120.603 48.352 121.339 47.904 121.595 47.52C121.851 47.136 122.011 46.304 122.075 45.024L122.267 38.88C122.331 37.152 121.851 35.712 120.827 34.56C119.803 33.344 118.395 32.736 116.603 32.736C115.643 32.736 114.683 32.896 113.723 33.216C112.763 33.536 111.963 33.952 111.323 34.464C110.683 34.912 110.363 35.84 110.363 37.248L110.459 38.976C110.459 39.488 109.627 40.192 107.963 41.088C106.363 41.92 105.083 42.336 104.123 42.336C103.803 42.336 103.547 42.272 103.355 42.144C103.163 41.952 103.067 41.728 103.067 41.472C103.067 40.448 103.387 39.36 104.027 38.208C104.731 36.992 105.691 35.872 106.907 34.848C109.083 32.864 111.515 31.232 114.203 29.952C116.955 28.672 119.291 28.032 121.211 28.032C123.515 28.032 125.403 28.864 126.875 30.528C128.411 32.128 129.147 34.144 129.083 36.576L128.603 59.616C128.539 60.96 128.827 62.048 129.467 62.88C130.107 63.712 130.971 64.128 132.059 64.128C133.659 64.128 134.843 63.776 135.611 63.072C135.931 62.752 136.187 62.592 136.379 62.592C136.699 62.592 136.955 62.688 137.147 62.88C137.339 63.072 137.435 63.328 137.435 63.648C137.435 63.904 137.339 64.256 137.147 64.704C136.955 65.088 136.699 65.44 136.379 65.76C135.355 66.784 134.235 67.584 133.019 68.16C131.867 68.8 130.779 69.12 129.755 69.12C126.811 69.12 124.475 67.456 122.747 64.128H122.459C120.347 65.856 118.331 67.104 116.411 67.872C114.491 68.704 112.507 69.12 110.459 69.12ZM114.971 64.512C117.211 64.512 119.099 63.744 120.635 62.208C121.019 61.824 121.307 61.344 121.499 60.768C121.691 60.192 121.819 59.36 121.883 58.272L122.075 53.568V52.992C122.075 52.48 122.011 52.128 121.883 51.936C121.755 51.68 121.531 51.552 121.211 51.552C120.827 51.552 120.187 51.712 119.291 52.032C116.091 53.184 113.787 54.4 112.379 55.68C110.971 56.96 110.267 58.208 110.267 59.424C110.267 61.024 110.715 62.272 111.611 63.168C112.571 64.064 113.691 64.512 114.971 64.512Z" fill="black"/>
<path d="M141.795 68.064C140.515 68.064 139.875 67.712 139.875 67.008C139.875 66.56 140.035 66.272 140.355 66.144C140.675 65.952 141.251 65.728 142.083 65.472C143.427 65.152 144.451 64.768 145.155 64.32C145.859 63.808 146.211 62.976 146.211 61.824V41.184C146.211 39.136 145.987 37.568 145.539 36.48C145.091 35.392 144.131 34.656 142.659 34.272C142.019 34.08 141.699 33.664 141.699 33.024C141.699 32.32 141.987 31.936 142.563 31.872C144.547 31.36 146.211 30.72 147.555 29.952C148.963 29.184 150.499 28.192 152.163 26.976C152.611 26.656 152.963 26.496 153.219 26.496C153.539 26.496 153.699 26.72 153.699 27.168L153.507 29.184C153.443 29.696 153.379 30.336 153.315 31.104C153.251 31.808 153.219 32.544 153.219 33.312C153.219 33.952 153.283 34.336 153.411 34.464C155.715 32.288 158.115 30.688 160.611 29.664C163.107 28.576 165.859 28.032 168.867 28.032C171.939 28.032 174.499 29.312 176.547 31.872C178.659 34.432 179.715 37.6 179.715 41.376V61.824C179.715 62.976 180.035 63.776 180.675 64.224C181.379 64.608 182.435 65.024 183.843 65.472C184.611 65.728 185.155 65.984 185.475 66.24C185.859 66.432 186.051 66.752 186.051 67.2C186.051 67.776 185.411 68.064 184.131 68.064C182.403 68.064 181.027 67.968 180.003 67.776C178.723 67.648 177.539 67.584 176.451 67.584C175.427 67.584 174.211 67.648 172.803 67.776C171.779 67.968 170.371 68.064 168.579 68.064C167.299 68.064 166.659 67.776 166.659 67.2C166.659 66.752 166.819 66.432 167.139 66.24C167.523 65.984 168.099 65.728 168.867 65.472C170.275 65.024 171.299 64.608 171.939 64.224C172.643 63.776 172.995 62.976 172.995 61.824V41.664C172.995 38.912 172.195 36.736 170.595 35.136C169.059 33.536 166.979 32.704 164.355 32.64C160.387 32.64 156.835 33.92 153.699 36.48C153.187 36.992 152.931 37.728 152.931 38.688V61.824C152.931 62.976 153.283 63.808 153.987 64.32C154.691 64.768 155.715 65.152 157.059 65.472C157.827 65.664 158.371 65.888 158.691 66.144C159.075 66.336 159.267 66.624 159.267 67.008C159.267 67.712 158.627 68.064 157.347 68.064C155.683 68.064 154.307 67.968 153.219 67.776C151.811 67.648 150.595 67.584 149.571 67.584C148.547 67.584 147.331 67.648 145.923 67.776C144.899 67.968 143.523 68.064 141.795 68.064Z" fill="black"/>
<path d="M192.034 68.256C191.778 68.256 191.49 68.064 191.17 67.68C190.85 67.232 190.69 66.88 190.69 66.624C190.69 66.432 191.074 65.728 191.842 64.512C192.674 63.232 193.474 62.08 194.242 61.056C200.578 51.968 206.69 42.752 212.578 33.408L212.77 32.928C212.77 32.608 212.418 32.448 211.714 32.448L202.21 32.16C201.378 32.096 200.578 32.256 199.81 32.64C199.106 33.024 198.498 33.472 197.986 33.984C197.41 34.56 196.482 35.744 195.202 37.536C194.242 38.88 193.762 39.552 193.762 39.552C193.57 39.744 193.282 39.84 192.898 39.84C192.45 39.84 192.098 39.744 191.842 39.552C191.586 39.296 191.522 38.976 191.65 38.592C192.034 37.504 192.418 36 192.802 34.08C193.25 32.16 193.474 30.656 193.474 29.568C193.474 29.12 193.634 28.736 193.954 28.416C194.338 28.032 194.658 27.84 194.914 27.84C195.17 27.84 195.65 28.128 196.354 28.704C196.802 29.088 198.178 29.28 200.482 29.28L204.13 29.184C210.21 29.184 216.162 29.088 221.986 28.896C222.242 28.896 222.434 29.056 222.562 29.376C222.754 29.632 222.786 29.856 222.658 30.048C220.994 32.096 219.778 33.696 219.01 34.848L200.29 63.168C200.162 63.36 200.098 63.584 200.098 63.84C200.098 64.096 200.194 64.288 200.386 64.416C200.578 64.544 200.834 64.608 201.154 64.608H212.482C213.89 64.608 215.33 63.872 216.802 62.4C217.762 61.44 219.522 59.104 222.082 55.392C222.274 55.072 222.562 54.912 222.946 54.912C223.266 54.912 223.554 55.04 223.81 55.296C224.066 55.488 224.194 55.744 224.194 56.064C224.194 56.384 223.81 57.92 223.042 60.672C222.338 63.36 221.762 65.44 221.314 66.912C221.122 67.808 220.61 68.256 219.778 68.256L215.554 68.16C210.69 67.904 205.41 67.776 199.714 67.776C199.458 67.776 197.89 67.872 195.01 68.064L192.034 68.256Z" fill="black"/>
<path d="M229.181 68.064C227.901 68.064 227.261 67.712 227.261 67.008C227.261 66.56 227.421 66.272 227.741 66.144C228.061 65.952 228.637 65.728 229.469 65.472C231.901 64.896 233.117 63.68 233.117 61.824V41.184C233.117 39.264 232.829 37.728 232.253 36.576C231.677 35.36 230.653 34.592 229.181 34.272C228.925 34.208 228.701 34.048 228.509 33.792C228.317 33.536 228.221 33.28 228.221 33.024C228.221 32.768 228.317 32.544 228.509 32.352C228.701 32.096 228.893 31.936 229.085 31.872C231.645 31.04 234.813 29.472 238.589 27.168C239.293 26.72 239.773 26.496 240.029 26.496C240.349 26.496 240.509 26.72 240.509 27.168C240.509 28.896 240.413 31.296 240.221 34.368C240.221 34.496 240.285 34.56 240.413 34.56C242.013 32.64 243.805 31.072 245.789 29.856C247.773 28.64 249.661 28.032 251.453 28.032C252.797 28.032 253.885 28.32 254.717 28.896C255.613 29.472 256.061 30.208 256.061 31.104C256.061 32.128 255.645 33.216 254.813 34.368C254.045 35.52 253.213 36.096 252.317 36.096C251.677 36.096 250.781 35.808 249.629 35.232C249.437 35.168 248.989 35.008 248.285 34.752C247.645 34.496 247.069 34.368 246.557 34.368C244.701 34.368 243.133 34.976 241.853 36.192C240.573 37.408 239.933 39.488 239.933 42.432V61.824C239.933 62.656 240.349 63.36 241.181 63.936C242.013 64.448 243.293 64.96 245.021 65.472C245.789 65.728 246.333 65.952 246.653 66.144C247.037 66.336 247.229 66.624 247.229 67.008C247.229 67.712 246.589 68.064 245.309 68.064C243.581 68.064 242.077 67.968 240.797 67.776C239.261 67.648 237.981 67.584 236.957 67.584C235.933 67.584 234.717 67.648 233.309 67.776C232.285 67.968 230.909 68.064 229.181 68.064Z" fill="black"/>
<path d="M267.772 69.12C266.684 69.12 265.532 68.672 264.316 67.776C263.1 66.944 262.076 65.888 261.244 64.608C260.476 63.264 260.092 62.016 260.092 60.864C260.092 58.88 260.604 57.312 261.628 56.16C262.716 55.008 264.476 53.92 266.908 52.896L276.7 48.864C277.916 48.352 278.652 47.904 278.908 47.52C279.164 47.136 279.324 46.304 279.388 45.024L279.58 38.88C279.644 37.152 279.164 35.712 278.14 34.56C277.116 33.344 275.708 32.736 273.916 32.736C272.956 32.736 271.996 32.896 271.036 33.216C270.076 33.536 269.276 33.952 268.636 34.464C267.996 34.912 267.676 35.84 267.676 37.248L267.772 38.976C267.772 39.488 266.94 40.192 265.276 41.088C263.676 41.92 262.396 42.336 261.436 42.336C261.116 42.336 260.86 42.272 260.668 42.144C260.476 41.952 260.38 41.728 260.38 41.472C260.38 40.448 260.7 39.36 261.34 38.208C262.044 36.992 263.004 35.872 264.22 34.848C266.396 32.864 268.828 31.232 271.516 29.952C274.268 28.672 276.604 28.032 278.524 28.032C280.828 28.032 282.716 28.864 284.188 30.528C285.724 32.128 286.46 34.144 286.396 36.576L285.916 59.616C285.852 60.96 286.14 62.048 286.78 62.88C287.42 63.712 288.284 64.128 289.372 64.128C290.972 64.128 292.156 63.776 292.924 63.072C293.244 62.752 293.5 62.592 293.692 62.592C294.012 62.592 294.268 62.688 294.46 62.88C294.652 63.072 294.748 63.328 294.748 63.648C294.748 63.904 294.652 64.256 294.46 64.704C294.268 65.088 294.012 65.44 293.692 65.76C292.668 66.784 291.548 67.584 290.332 68.16C289.18 68.8 288.092 69.12 287.068 69.12C284.124 69.12 281.788 67.456 280.06 64.128H279.772C277.66 65.856 275.644 67.104 273.724 67.872C271.804 68.704 269.82 69.12 267.772 69.12ZM272.284 64.512C274.524 64.512 276.412 63.744 277.948 62.208C278.332 61.824 278.62 61.344 278.812 60.768C279.004 60.192 279.132 59.36 279.196 58.272L279.388 53.568V52.992C279.388 52.48 279.324 52.128 279.196 51.936C279.068 51.68 278.844 51.552 278.524 51.552C278.14 51.552 277.5 51.712 276.604 52.032C273.404 53.184 271.1 54.4 269.692 55.68C268.284 56.96 267.58 58.208 267.58 59.424C267.58 61.024 268.028 62.272 268.924 63.168C269.884 64.064 271.004 64.512 272.284 64.512Z" fill="black"/>
<path d="M330.02 69.6C329.572 69.6 329.348 69.344 329.348 68.832L329.54 66.24C329.732 64.96 329.828 63.84 329.828 62.88V62.304C327.396 64.736 324.9 66.496 322.34 67.584C319.78 68.608 316.996 69.12 313.988 69.12C310.724 69.12 308.068 68.128 306.02 66.144C304.035 64.16 303.044 61.344 303.044 57.696V38.208C303.044 36.8 302.724 35.68 302.084 34.848C301.444 34.016 300.388 33.312 298.916 32.736C298.084 32.48 297.668 31.968 297.668 31.2C297.668 30.304 298.148 29.792 299.108 29.664C301.092 29.536 302.66 29.376 303.812 29.184C304.964 28.992 306.564 28.64 308.612 28.128L309.38 28.032C310.084 28.032 310.404 28.48 310.34 29.376C309.956 32.32 309.764 34.784 309.764 36.768V55.488C309.764 57.792 310.596 59.84 312.26 61.632C313.924 63.36 315.78 64.224 317.828 64.224C319.748 64.224 321.284 64.128 322.436 63.936C323.652 63.68 324.803 63.136 325.892 62.304C327.044 61.472 328.036 60.512 328.868 59.424C329.764 58.272 330.212 56.832 330.212 55.104V37.536C330.212 35.808 329.476 34.592 328.004 33.888C326.596 33.12 325.188 32.736 323.78 32.736C322.436 32.736 321.764 32.192 321.764 31.104C321.764 30.144 322.436 29.664 323.78 29.664C326.531 29.6 328.708 29.472 330.308 29.28C331.972 29.024 333.732 28.64 335.588 28.128C335.972 28 336.292 27.936 336.548 27.936C336.868 27.936 337.156 28.032 337.412 28.224C337.668 28.416 337.796 28.672 337.796 28.992L337.604 29.856C337.476 30.56 337.315 31.584 337.124 32.928C336.996 34.208 336.932 35.392 336.932 36.48V58.656C336.932 61.856 337.508 63.456 338.66 63.456L340.868 63.264L343.076 63.168C344.036 63.168 344.516 63.584 344.516 64.416C344.516 64.928 344.388 65.28 344.132 65.472C343.94 65.6 343.62 65.696 343.172 65.76C340.996 66.08 339.076 66.496 337.412 67.008C335.748 67.52 333.924 68.192 331.94 69.024C331.172 69.408 330.532 69.6 330.02 69.6Z" fill="black"/>
<path d="M359.333 69.12C357.349 69.12 355.493 68.8 353.765 68.16C352.037 67.584 350.565 66.752 349.349 65.664C348.837 64.64 348.484 62.08 348.293 57.984C348.293 57.408 348.709 57.12 349.541 57.12C350.245 57.12 350.629 57.344 350.693 57.792C351.461 60.736 352.709 62.944 354.437 64.416C356.229 65.824 358.148 66.528 360.197 66.528C362.052 66.528 363.621 65.92 364.901 64.704C366.245 63.424 366.917 61.856 366.917 60C366.917 58.336 366.341 56.896 365.189 55.68C364.1 54.4 362.085 52.832 359.141 50.976C355.812 48.928 353.445 47.04 352.037 45.312C350.693 43.52 350.021 41.44 350.021 39.072C350.021 35.872 351.141 33.248 353.381 31.2C355.621 29.088 358.821 28.032 362.981 28.032C364.773 28.032 366.309 28.224 367.589 28.608C368.932 28.928 369.957 29.344 370.661 29.856C371.173 30.56 371.589 31.68 371.909 33.216C372.293 34.688 372.485 36.096 372.485 37.44C372.485 37.888 372.164 38.112 371.525 38.112C371.141 38.112 370.757 38.048 370.373 37.92C369.989 37.728 369.764 37.504 369.701 37.248C368.805 35.072 367.717 33.44 366.437 32.352C365.221 31.264 363.717 30.72 361.925 30.72C360.261 30.72 358.821 31.232 357.605 32.256C356.389 33.28 355.781 34.656 355.781 36.384C355.781 37.92 356.229 39.264 357.125 40.416C358.085 41.504 359.845 42.784 362.405 44.256C366.437 46.56 369.285 48.64 370.949 50.496C372.613 52.288 373.445 54.592 373.445 57.408C373.445 60.864 372.133 63.68 369.509 65.856C366.885 68.032 363.493 69.12 359.333 69.12Z" fill="black"/>
<path d="M396.988 69.216C393.788 69.216 390.876 68.416 388.252 66.816C385.692 65.152 383.644 62.912 382.108 60.096C380.636 57.216 379.9 54.016 379.9 50.496C379.9 46.4 380.796 42.656 382.588 39.264C384.444 35.808 386.908 33.088 389.98 31.104C393.052 29.056 396.444 28.032 400.156 28.032C404.316 28.032 407.964 29.152 411.1 31.392C411.868 31.968 412.252 32.576 412.252 33.216C412.252 34.048 411.772 34.912 410.812 35.808C409.852 36.704 408.956 37.152 408.124 37.152C407.804 37.152 407.484 37.056 407.164 36.864C406.844 36.608 406.492 36.352 406.108 36.096C404.508 34.88 402.876 33.824 401.212 32.928C399.548 32.032 398.172 31.584 397.084 31.584C393.948 31.584 391.388 33.056 389.404 36C387.484 38.944 386.524 42.752 386.524 47.424C386.524 50.368 387.164 53.088 388.444 55.584C389.724 58.016 391.484 59.936 393.724 61.344C395.964 62.752 398.428 63.456 401.116 63.456C402.972 63.456 404.572 63.168 405.916 62.592C407.26 61.952 408.7 60.864 410.236 59.328C410.556 59.008 410.876 58.848 411.196 58.848C411.516 58.848 411.772 58.976 411.964 59.232C412.156 59.488 412.252 59.808 412.252 60.192C412.252 60.896 411.772 61.888 410.812 63.168C409.276 65.152 407.324 66.656 404.956 67.68C402.588 68.704 399.932 69.216 396.988 69.216Z" fill="black"/>
<path d="M419.378 68.064C418.098 68.064 417.458 67.712 417.458 67.008C417.458 66.624 417.617 66.336 417.938 66.144C418.258 65.952 418.834 65.728 419.666 65.472C420.946 65.088 421.938 64.64 422.642 64.128C423.346 63.552 423.73 62.688 423.794 61.536V13.44C423.794 9.344 422.386 7.04 419.57 6.528C418.994 6.4 418.706 5.952 418.706 5.184C418.706 4.608 418.962 4.224 419.474 4.032C424.53 2.432 428.082 1.184 430.13 0.288002C430.386 0.16 430.578 0.0959988 430.706 0.0959988C431.154 0.0959988 431.378 0.32 431.378 0.768002C431.378 1.088 431.218 2.08 430.898 3.744C430.642 5.344 430.514 8.704 430.514 13.824V30.528C430.514 31.488 430.546 32.224 430.61 32.736C430.738 33.184 430.93 33.632 431.186 34.08C436.626 30.048 441.49 28.032 445.778 28.032C448.914 28.032 451.506 29.28 453.554 31.776C455.666 34.272 456.722 37.376 456.722 41.088V61.248C456.722 63.296 458.034 64.704 460.658 65.472C461.426 65.664 461.97 65.888 462.29 66.144C462.674 66.336 462.866 66.624 462.866 67.008C462.866 67.712 462.226 68.064 460.946 68.064C459.346 68.064 458.002 67.968 456.914 67.776C455.634 67.648 454.482 67.584 453.458 67.584C452.434 67.584 451.282 67.648 450.002 67.776C448.978 67.968 447.634 68.064 445.97 68.064C444.69 68.064 444.05 67.712 444.05 67.008C444.05 66.624 444.177 66.368 444.434 66.24C444.754 66.048 445.362 65.792 446.258 65.472C447.41 65.088 448.306 64.576 448.946 63.936C449.65 63.296 450.002 62.4 450.002 61.248V41.664C450.002 40.128 449.553 38.72 448.658 37.44C447.762 36.096 446.609 35.04 445.202 34.272C443.858 33.44 442.482 33.024 441.074 33.024C439.73 33.024 438.258 33.216 436.658 33.6C435.121 33.984 433.938 34.496 433.106 35.136C432.082 35.968 431.378 36.864 430.994 37.824C430.674 38.72 430.514 40.128 430.514 42.048V61.536C430.578 62.688 430.93 63.552 431.57 64.128C432.21 64.64 433.105 65.088 434.258 65.472C434.962 65.664 435.474 65.888 435.794 66.144C436.178 66.336 436.37 66.624 436.37 67.008C436.37 67.392 436.21 67.648 435.89 67.776C435.634 67.968 435.154 68.064 434.45 68.064C432.786 68.064 431.474 67.968 430.514 67.776C429.362 67.648 428.242 67.584 427.154 67.584C426.13 67.584 424.914 67.648 423.506 67.776C422.482 67.968 421.105 68.064 419.378 68.064Z" fill="black"/>
</svg>
